<?xml version="1.0" encoding="UTF-8" standalone="no"?><!DOCTYPE svg PUBLIC "-//W3C//DTD SVG 1.1//EN" "http://www.w3.org/Graphics/SVG/1.1/DTD/svg11.dtd"><svg width="100%" height="100%" viewBox="0 0 14617 10338" version="1.1" xmlns="http://www.w3.org/2000/svg" xmlns:xlink="http://www.w3.org/1999/xlink" xml:space="preserve" xmlns:serif="http://www.serif.com/" style="fill-rule:evenodd;clip-rule:evenodd;stroke-linecap:round;stroke-linejoin:round;stroke-miterlimit:1.5;"><g><g><g id="logo-B-bennes" serif:id="logo B-bennes"><g id="B-haut" serif:id="B haut"><g id="B-haut1" serif:id="B haut"><path d="M9898.51,4443.56c817.725,-930.094 777.934,-2333.92 -91.162,-3216.2c-439.484,-446.153 -1038.2,-699.447 -1664.44,-704.162l-3.541,470.348c501.495,3.776 980.95,206.615 1332.89,563.896c695.975,706.535 727.84,1830.73 73.002,2575.55l353.25,310.571Z" style="fill:#3498db;"/><path d="M8097.49,4773.27c500.952,7.332 984.298,-184.639 1343.71,-533.68c747.933,-726.356 765.451,-1923.29 39.096,-2671.22c-352.768,-363.249 -836.6,-569.666 -1342.94,-572.94l-3.361,519.705c367.038,2.373 717.758,152 973.472,415.311c526.52,542.161 513.821,1409.79 -28.34,1936.31c-260.529,253.012 -610.897,392.168 -974.026,386.853l-7.606,519.66Z" style="fill:none;"/><path d="M9469.07,4143.84c676.988,-722.429 661.738,-1850.81 -34.528,-2554.68c-343.526,-347.278 -810.939,-543.867 -1299.41,-546.52l-2.562,471.659c363.381,1.974 711.095,148.219 966.649,406.563c517.96,523.617 529.305,1363.03 25.685,1900.46l344.167,322.518Z" style="fill:#3498db;"/><path d="M8932.76,3931.47c29.61,-22.84 58.239,-46.927 85.808,-72.193c538.032,-493.104 574.509,-1330.26 81.405,-1868.29c-249.899,-272.669 -602.574,-428.214 -972.436,-428.888l-0.859,471.789c237.9,0.434 464.745,100.483 625.483,275.867c317.171,346.069 293.709,884.536 -52.361,1201.71c-17.732,16.253 -36.147,31.745 -55.193,46.436l288.153,373.57Z" style="fill:#3498db;"/><path id="Barre2" d="M6073.9,541.159c0,-9.953 -8.081,-18.034 -18.038,-18.034l-324.669,-0c-9.957,-0 -18.038,8.081 -18.038,18.034l-0,436.19c-0,9.953 8.081,18.034 18.038,18.034l324.669,0c9.957,0 18.038,-8.081 18.038,-18.034l0,-436.19Z" style="fill:#5b5b5b;stroke:#3d3d3d;stroke-width:8.2px;stroke-dasharray:8.2,8.2;"/><path id="Barre21" serif:id="Barre2" d="M6689.66,1059.14c0,-9.124 -7.405,-16.529 -16.53,-16.529l-297.524,-0c-9.124,-0 -16.53,7.405 -16.53,16.529l0,439.203c0,9.125 7.406,16.53 16.53,16.53l297.524,0c9.125,0 16.53,-7.405 16.53,-16.53l0,-439.203Z" style="fill:#5b5b5b;stroke:#3d3d3d;stroke-width:8.2px;stroke-dasharray:8.2,8.2;"/><path id="Barre22" serif:id="Barre2" d="M6309.83,1051.54c0,-4.928 -3.998,-8.931 -8.931,-8.931l-160.774,-0c-4.932,-0 -8.931,4.003 -8.931,8.931l-0,454.4c-0,4.928 3.999,8.931 8.931,8.931l160.774,0c4.933,0 8.931,-4.003 8.931,-8.931l0,-454.4Z" style="fill:#5b5b5b;stroke:#3d3d3d;stroke-width:8.2px;stroke-dasharray:8.2,8.2;"/><path id="Barre23" serif:id="Barre2" d="M6536.38,1585.71c0,-13.03 -10.58,-23.61 -23.611,-23.61l-713.335,-0c-13.031,-0 -23.611,10.58 -23.611,23.61l-0,425.037c-0,13.031 10.58,23.611 23.611,23.611l713.335,-0c13.031,-0 23.611,-10.58 23.611,-23.611l0,-425.037Z" style="fill:#5b5b5b;stroke:#3d3d3d;stroke-width:8.2px;stroke-dasharray:8.2,8.2;"/><rect id="Barres" x="6735.62" y="1042.61" width="1436.52" height="472.263" style="fill:#3498db;"/><rect id="Barres1" serif:id="Barres" x="6115.29" y="523.125" width="2053.8" height="472.263" style="fill:#3498db;"/><rect id="Barre24" serif:id="Barre2" x="7568.03" y="1562.1" width="601.064" height="472.263" style="fill:#3498db;"/><path id="Barre25" serif:id="Barre2" d="M7520.02,1585.71c0,-13.03 -10.58,-23.61 -23.611,-23.61l-891.064,-0c-13.031,-0 -23.611,10.58 -23.611,23.61l0,425.037c0,13.031 10.58,23.611 23.611,23.611l891.064,-0c13.031,-0 23.611,-10.58 23.611,-23.611l0,-425.037Z" style="fill:#5b5b5b;stroke:#3d3d3d;stroke-width:8.2px;stroke-dasharray:8.2,8.2;"/></g><path id="Barre26" serif:id="Barre2" d="M5730.01,1571.03c-0,-4.928 -4.003,-8.931 -8.931,-8.931l-160.779,-0c-4.928,-0 -8.931,4.003 -8.931,8.931l0,454.396c0,4.932 4.003,8.931 8.931,8.931l160.779,-0c4.928,-0 8.931,-3.999 8.931,-8.931l-0,-454.396Z" style="fill:#5b5b5b;stroke:#3d3d3d;stroke-width:8.2px;stroke-dasharray:8.2,8.2;"/></g><g id="B-bas" serif:id="B bas"><path d="M8514.1,8167.58c626.256,0.892 1227.22,-247.031 1670.68,-689.23c922.841,-920.216 924.973,-2416.55 4.758,-3339.39c-442.199,-443.461 -1042.45,-693.097 -1668.71,-693.989l-0.676,474.15c500.504,0.713 980.226,200.222 1333.63,554.636c735.436,737.535 733.732,1933.4 -3.803,2668.84c-354.414,353.406 -834.701,551.546 -1335.2,550.833l-0.676,474.15Z" style="fill:#0652dd;"/><path d="M8541.52,7647.94c488.438,-6.38 954.337,-206.531 1295.2,-556.42c709.342,-728.12 694.098,-1895.16 -34.022,-2604.5c-349.89,-340.866 -820.858,-528.779 -1309.3,-522.398l6.177,472.883c363.022,-4.742 713.059,134.92 973.108,388.262c541.16,527.204 552.491,1394.58 25.286,1935.74c-253.342,260.048 -599.611,408.806 -962.633,413.548l6.177,472.883Z" style="fill:#0652dd;"/><path d="M8545.67,7128.31c342.635,-7.309 669.05,-147.359 910.444,-390.631c514.053,-518.053 510.806,-1355.99 -7.246,-1870.05c-254.626,-252.661 -600.974,-391.035 -959.601,-383.385l10.145,475.552c229.624,-4.899 451.385,83.701 614.419,245.476c331.703,329.142 333.782,865.663 4.64,1197.37c-154.561,155.764 -363.561,245.437 -582.946,250.117l10.145,475.551Z" style="fill:#0652dd;"/><path id="Barre27" serif:id="Barre2" d="M7903.89,3468.6c-0,-13.031 -10.58,-23.615 -23.611,-23.615l-755.616,-0c-13.035,-0 -23.615,10.584 -23.615,23.615l-0,425.032c-0,13.036 10.58,23.616 23.615,23.616l755.616,-0c13.031,-0 23.611,-10.58 23.611,-23.616l-0,-425.032Z" style="fill:#3d3d3d;stroke:#3d3d3d;stroke-width:8.2px;stroke-dasharray:8.2,8.2;"/><path id="Barre28" serif:id="Barre2" d="M7049.99,3468.6c-0,-13.031 -10.58,-23.615 -23.611,-23.615l-897.295,-0c-13.035,-0 -23.615,10.584 -23.615,23.615l-0,425.032c-0,13.036 10.58,23.616 23.615,23.616l897.295,-0c13.031,-0 23.611,-10.58 23.611,-23.616l-0,-425.032Z" style="fill:#3d3d3d;stroke:#3d3d3d;stroke-width:8.2px;stroke-dasharray:8.2,8.2;"/><path id="Barre29" serif:id="Barre2" d="M7299.08,3981c0,-9.125 -7.405,-16.53 -16.525,-16.53l-297.529,-0c-9.12,-0 -16.525,7.405 -16.525,16.53l-0,439.203c-0,9.12 7.405,16.53 16.525,16.53l297.529,-0c9.12,-0 16.525,-7.41 16.525,-16.53l0,-439.203Z" style="fill:#3d3d3d;stroke:#3d3d3d;stroke-width:8.2px;stroke-dasharray:8.2,8.2;"/><path id="Barre210" serif:id="Barre2" d="M6155.54,4507.57c0,-13.031 -10.58,-23.615 -23.611,-23.615l-425.036,-0c-13.031,-0 -23.611,10.584 -23.611,23.615l-0,425.036c-0,13.031 10.58,23.611 23.611,23.611l425.036,0c13.031,0 23.611,-10.58 23.611,-23.611l0,-425.036Z" style="fill:#3d3d3d;stroke:#3d3d3d;stroke-width:8.2px;stroke-dasharray:8.2,8.2;"/><path id="Barre211" serif:id="Barre2" d="M6065.08,7199.48c0,-13.036 -10.58,-23.616 -23.611,-23.616l-661.168,0c-13.031,0 -23.61,10.58 -23.61,23.616l-0,425.032c-0,13.035 10.579,23.615 23.61,23.615l661.168,0c13.031,0 23.611,-10.58 23.611,-23.615l0,-425.032Z" style="fill:#3d3d3d;stroke:#3d3d3d;stroke-width:8.2px;stroke-dasharray:8.2,8.2;"/><rect id="Barres2" serif:id="Barres" x="7347.88" y="3964.47" width="1216.61" height="472.263" style="fill:#0652dd;"/><rect id="Barres3" serif:id="Barres" x="7952.16" y="3444.99" width="609.25" height="472.263" style="fill:#0652dd;"/><rect id="Barre212" serif:id="Barre2" x="6483.46" y="4483.98" width="2077.95" height="472.263" style="fill:#0652dd;"/><path id="Barre213" serif:id="Barre2" d="M8561.44,7719.14c-0,-13.141 -10.668,-23.804 -23.804,-23.804l-1813.22,-0c-13.141,-0 -23.804,10.663 -23.804,23.804l0,424.65c0,13.141 10.663,23.804 23.804,23.804l1813.22,0c13.136,0 23.804,-10.663 23.804,-23.804l-0,-424.65Z" style="fill:#0652dd;stroke:#0652dd;stroke-width:8.2px;stroke-dasharray:8.2,8.2;"/><path id="Barre214" serif:id="Barre2" d="M6655.42,7716.9c-0,-11.904 -9.664,-21.568 -21.568,-21.568l-1845.9,-0c-11.909,-0 -21.573,9.664 -21.573,21.568l0,429.123c0,11.904 9.664,21.567 21.573,21.567l1845.9,0c11.904,0 21.568,-9.663 21.568,-21.567l-0,-429.123Z" style="fill:#3d3d3d;stroke:#3d3d3d;stroke-width:8.2px;stroke-dasharray:8.2,8.2;"/><path id="Barre215" serif:id="Barre2" d="M8561.44,7199.48c-0,-13.036 -10.58,-23.616 -23.611,-23.616l-2402.9,0c-13.031,0 -23.611,10.58 -23.611,23.616l-0,425.032c-0,13.035 10.58,23.615 23.611,23.615l2402.9,0c13.031,0 23.611,-10.58 23.611,-23.615l-0,-425.032Z" style="fill:#0652dd;stroke:#0652dd;stroke-width:8.2px;stroke-dasharray:8.2,8.2;"/><path id="Barre216" serif:id="Barre2" d="M8561.44,6679.99c-0,-13.031 -10.58,-23.611 -23.611,-23.611l-2567.56,0c-13.031,0 -23.611,10.58 -23.611,23.611l0,425.037c0,13.031 10.58,23.611 23.611,23.611l2567.56,-0c13.031,-0 23.611,-10.58 23.611,-23.611l-0,-425.037Z" style="fill:#0652dd;stroke:#0652dd;stroke-width:8.2px;stroke-dasharray:8.2,8.2;"/><path id="Barre217" serif:id="Barre2" d="M5310.45,7188.03c-0,-6.735 -5.472,-12.207 -12.207,-12.207l-219.715,0c-6.74,0 -12.207,5.472 -12.207,12.207l-0,447.849c-0,6.735 5.467,12.207 12.207,12.207l219.715,0c6.735,0 12.207,-5.472 12.207,-12.207l-0,-447.849Z" style="fill:#3d3d3d;stroke:#3d3d3d;stroke-width:8.2px;stroke-dasharray:8.2,8.2;"/><path id="Barre218" serif:id="Barre2" d="M5899.78,6671.27c-0,-10.427 -8.467,-18.889 -18.889,-18.889l-340.028,0c-10.427,0 -18.893,8.462 -18.893,18.889l-0,434.481c-0,10.426 8.466,18.888 18.893,18.888l340.028,0c10.422,0 18.889,-8.462 18.889,-18.888l-0,-434.481Z" style="fill:#3d3d3d;stroke:#3d3d3d;stroke-width:8.2px;stroke-dasharray:8.2,8.2;"/><path id="Barre219" serif:id="Barre2" d="M6438.03,4495.77c0,-6.515 -5.292,-11.807 -11.807,-11.807l-212.516,-0c-6.516,-0 -11.808,5.292 -11.808,11.807l-0,448.648c-0,6.52 5.292,11.808 11.808,11.808l212.516,-0c6.515,-0 11.807,-5.288 11.807,-11.808l0,-448.648Z" style="fill:#3d3d3d;stroke:#3d3d3d;stroke-width:8.2px;stroke-dasharray:8.2,8.2;"/><path id="Barre220" serif:id="Barre2" d="M5503.55,1585.71c-0,-13.03 -10.58,-23.61 -23.611,-23.61l-425.037,-0c-13.031,-0 -23.611,10.58 -23.611,23.61l0,425.037c0,13.031 10.58,23.611 23.611,23.611l425.037,-0c13.031,-0 23.611,-10.58 23.611,-23.611l-0,-425.037Z" style="fill:#5b5b5b;stroke:#3d3d3d;stroke-width:8.2px;stroke-dasharray:8.2,8.2;"/></g></g></g></g><g><text x="2519.58px" y="10311.3px" style="font-family:'Arial-BoldMT', 'Arial', sans-serif;font-weight:700;font-size:2062.5px;fill:#0652dd;stroke:#0652dd;stroke-width:3.69px;stroke-linecap:butt;stroke-miterlimit:2;">B<tspan x="3994.76px 4562.29px 6037.47px 7399.94px 8875.11px 10350.3px 11712.8px " y="10311.3px 10311.3px 10311.3px 10311.3px 10311.3px 10311.3px 10311.3px "> BENNES</tspan></text></g></svg>