<?xml version="1.0" encoding="UTF-8" standalone="no"?><!DOCTYPE svg PUBLIC "-//W3C//DTD SVG 1.1//EN" "http://www.w3.org/Graphics/SVG/1.1/DTD/svg11.dtd"><svg width="100%" height="100%" viewBox="0 0 2448 1884" version="1.1" xmlns="http://www.w3.org/2000/svg" xmlns:xlink="http://www.w3.org/1999/xlink" xml:space="preserve" xmlns:serif="http://www.serif.com/" style="fill-rule:evenodd;clip-rule:evenodd;"><g id="Capa-1" serif:id="Capa 1"><path id="path2894" d="M1147.35,725.958l39.545,4.254l16.948,-8.367l21.494,-13.189l27.971,9.502l29.211,2.411l7.027,-15.6l1.102,-14.891l-8.129,-9.076l-28.522,-1.135l-8.267,5.389l-3.445,10.778l-7.578,-1.843l4.133,-22.549l0,-36.589l-14.054,-20.279l-8.68,-27.371l-73.992,-1.843l-15.432,7.09l-15.707,14.466l-10.61,14.465l-30.589,2.411l-9.92,7.658l-9.783,16.167l-4.134,12.763l37.065,34.745l64.346,30.491l0,0.142Z" style="fill:#f00;fill-opacity:0.47;fill-rule:nonzero;stroke:#000;stroke-opacity:0.24;stroke-width:2.24px;"/><path id="path2889" d="M971.394,670.933l8.543,2.836l18.05,-3.545l-2.894,9.643l-11.023,4.113l0,4.255l7.027,-2.979l11.574,4.822l11.712,-5.531l0,-8.934l9.37,-7.233l-8.819,-4.112l5.787,-9.644l7.579,0l1.791,4.255l16.397,2.127l-0.552,-0.426l4.134,-12.763l9.783,-16.167l9.92,-7.658l30.589,-2.411l10.61,-14.465l15.707,-14.466l15.708,-7.232l-9.507,-15.6l3.306,-2.553l10.334,-7.232l5.65,-6.382l4.133,-9.785l0,-12.338l-2.893,-3.83l-6.063,-6.239l-7.854,-3.829l-8.267,-2.553l-24.388,-0.426l-13.09,1.702l-11.574,3.404l-9.92,8.367l-21.357,20.421l-18.188,15.317l-20.392,13.33l-4.41,8.651l-21.357,11.913l-8.267,17.018l-11.574,27.087l4.685,29.072Z" style="fill:#ce86ce;fill-opacity:0.46;fill-rule:nonzero;stroke:#000;stroke-opacity:0.24;stroke-width:2.24px;"/><path id="path2857" d="M414.461,299.091l-51.118,23.683l-49.466,-4.964l-1.653,16.876l-24.802,18.72l-23.01,-30.632l-1.653,54.316l26.317,34.035l-23.011,44.105l46.159,-1.701l6.614,13.614l-19.842,18.578l19.842,64.526l23.01,-1.702l11.436,25.527l16.672,37.298l-21.494,23.683l39.544,20.422l0,21.981l16.535,6.808l-18.188,45.806l1.653,73.036l47.812,32.192l-54.425,74.737l27.833,23.684l12.263,-9.786l21.081,-32.334l27.97,2.411l17.499,-10.778l23.286,-1.276l1.103,-33.611l-33.758,-8.367l19.841,-32.334l16.259,2.411l-13.917,-16.876l0,-11.913l18.602,-6.098l8.129,-7.091l0,-20.421l-25.628,-0l1.24,-12.055l10.472,-14.323l-1.24,-30.065l5.924,-23.967l10.472,-23.967l1.102,-12.055l15.57,-6.098l0.138,0l19.29,12.055l8.13,-14.324l10.471,-7.232l0,-8.368l19.842,16.735l25.628,-0l-0,15.6l15.156,-5.957l16.397,15.6l17.499,-3.687l8.129,-5.956l18.601,-2.411l0,-19.146l10.61,2.411l4.547,-9.643l8.267,-9.644l-10.61,-11.912l-1.102,-9.644l-16.259,-7.232l1.103,-8.368l14.054,-2.41l4.547,-9.644l14.054,9.644l10.472,-21.557l22.183,-12.054l3.445,-20.421l-7.027,-37.156l-8.129,1.276l-1.103,-14.465l2.343,-12.055l6.889,-15.599l21.081,8.509l19.842,11.912l20.805,-28.221l-14.605,-22.549l-26.455,6.807l-4.96,-20.421l-34.585,6.807l-18.188,-33.894l-27.97,21.981l3.307,15.316l-23.148,11.913l-14.744,-22.123l8.13,-23.684l3.307,-23.825l-14.743,0l-18.188,-28.789l-32.931,11.913l-6.614,21.981l-24.802,-10.21l-13.089,22.123l-19.841,-6.807l-41.199,-3.404l-4.96,-22.123l-29.624,-16.876l-28.108,5.105l-3.858,-5.105l-11.023,8.509l-11.437,-15.316Z" style="fill:#ffdb00;fill-opacity:0.54;fill-rule:nonzero;stroke:#000;stroke-opacity:0.24;stroke-width:2.24px;"/><path id="path2918" d="M698.715,638.032l9.231,14.039l16.397,4.255l6.614,11.912l9.92,-3.403l11.574,6.807l13.917,-0.851l1.653,6.665l13.228,-0.85l5.787,14.465l3.307,12.763l10.747,1.702l8.267,7.658l6.476,5.106l0,8.367l6.614,9.36l20.668,-0l5.787,-6.808l4.96,-7.516l0.827,-6.807l14.743,1.702l3.307,-5.106l11.574,0l0.827,6.808l19.841,12.621l13.09,-26.236l-5.787,-6.807l10.747,-5.956l7.44,-0l14.055,5.105l9.094,2.553l24.388,-1.702l-3.032,-5.105l-8.267,-50.912l11.574,-27.087l8.267,-17.018l21.357,-11.913l14.881,-28.789l-3.307,-47.508l-24.663,-6.807l-3.307,-22.124l-11.574,-20.279l-18.188,-10.211l-19.704,-5.105l-4.96,-40.702l-16.534,8.509l-19.704,-5.105l-8.267,20.28l-59.386,6.807l-8.405,-13.047l-20.805,28.221l-19.842,-11.912l-21.081,-8.509l-6.889,15.599l-2.343,12.055l1.103,14.465l8.129,-1.276l7.027,37.156l-3.445,20.421l-22.183,12.054l-10.472,21.557l-14.054,-9.644l-4.547,9.644l-14.054,2.41l-1.103,8.368l16.259,7.232l1.102,9.644l10.61,11.912l-8.267,9.644l-4.547,9.643l-10.61,-2.411l0,19.146l-6.062,0.851Z" style="fill:#ffc600;fill-opacity:0.37;fill-rule:nonzero;stroke:#000;stroke-opacity:0.24;stroke-width:2.24px;"/><path id="path2928" d="M929.92,881.956l-9.369,-24.535l9.92,-11.912l13.228,5.105l19.703,-27.229l9.921,6.808l14.881,-11.771l23.01,6.665l3.307,-30.49l13.228,3.403l11.574,-8.509l1.653,-20.279l-19.841,-6.808l-21.357,-8.509l-4.96,-27.228l-16.81,-28.789l-24.388,1.702l-9.094,-2.553l-14.055,-5.105l-7.44,-0l-10.747,5.956l5.787,6.807l-13.09,26.236l-19.841,-12.621l-0.827,-6.808l-11.574,0l-3.307,5.106l-14.743,-1.702l-0.827,6.807l-4.96,7.516l-5.787,6.808l-20.668,-0l-6.614,-9.36l0,-8.367l-6.476,-5.106l-8.267,-7.658l-10.747,-1.702l-3.307,-12.763l-5.787,-14.465l-13.228,0.85l-1.653,-6.665l-13.917,0.851l-11.574,-6.807l-9.92,3.403l-1.654,-2.836l-9.369,10.211l2.342,13.189l-11.023,-2.978l0,8.367l15.157,7.232l9.369,1.844l0,8.367l4.547,4.822l-4.547,9.502l-5.236,1.276l1.103,17.443l3.444,9.502l9.37,9.644l7.027,-0.568l6.338,10.211l21.081,5.389l2.343,-8.509l8.68,-10.778l9.37,-1.134l5.236,3.545l3.444,-2.978l12.263,-0l1.24,6.665l5.236,1.135l2.894,5.956l10.472,1.844l4.133,6.665l7.578,-6.665l22.735,-0l2.894,-9.644l18.05,12.055l6.338,-3.546l8.267,6.524l6.889,5.389l11.161,3.687l-1.791,11.912l1.791,7.8l-2.893,4.255l-0.689,7.8l-3.445,2.978l-8.681,2.411l0,2.411l-14.054,1.843l9.921,10.778l-0,11.913l-4.685,2.411l3.445,4.822l-6.89,5.389l0.552,3.687l9.369,-0l5.787,8.934l14.054,3.546Z" style="fill:#ff0;fill-opacity:0.52;fill-rule:nonzero;stroke:#000;stroke-opacity:0.24;stroke-width:2.24px;"/><path id="path2947" d="M1143.49,1483.97l7.854,-9.218l-13.916,-15.6l-11.712,-0l-3.445,6.098l-7.027,-7.233l8.129,-14.465l-5.787,-4.822l1.103,-4.68l18.739,0l6.889,-15.599l-0,-24.109l-8.13,-3.546l10.472,-12.054l-1.102,-10.778l11.574,-7.233l7.027,8.509l8.129,-21.697l24.526,-9.502l0,14.323l4.685,7.233l39.683,7.233l5.787,-10.779l-10.472,-4.821l7.027,-18.011l-15.156,-19.287l1.102,-15.6l32.655,2.411l10.472,-33.61l-13.916,-0l4.547,-8.367l14.054,-2.411l-16.397,-15.6l0,-8.367l-17.361,-10.778l-18.739,2.411l-15.156,-13.189l-8.13,4.821l-18.601,-7.232l-7.027,-22.833l11.574,-13.189l-20.944,-9.643l-7.027,7.233l1.24,20.421l-4.684,10.778l-18.601,-2.411l-18.739,-14.323l5.787,-24.109l-15.157,-2.411l-1.102,16.876l-31.415,5.957l-15.157,-19.146l-8.267,7.233l-1.102,-12.054l-8.13,-8.368l2.343,-26.377l-8.268,-10.92l-10.471,9.643l-18.602,-18.01l-4.684,4.821l-8.13,-4.821l-8.129,7.232l-9.37,-9.643l-16.396,9.643l-6.889,-9.643l8.129,-5.957l-1.24,-18.01l-11.574,5.956l-4.685,-5.956l-25.628,10.778l-1.24,-13.189l-10.472,3.687l-16.259,-12.054l-7.027,10.778l-16.397,1.276l-5.373,-11.629l-17.361,-3.262l-0,11.771l9.92,15.316l-9.92,8.509l-16.535,18.72l3.307,16.876l-13.227,8.509l-19.704,0l-16.534,-8.509l-21.357,-1.702l-11.574,-6.807l-6.614,8.509l0,17.018l29.624,27.087l-1.653,11.913l-42.852,71.333l0,44.814l3.307,-4.113l19.841,28.789l-11.574,47.509l46.159,3.403l11.574,66.228l-21.495,35.596l6.614,18.72l-21.357,33.894l26.317,34.036l75.783,3.404l11.574,-17.018l26.455,-0l8.129,-18.72l14.881,11.913l39.545,-6.808l4.96,-17.018l24.802,5.106l31.277,-49.21l29.624,17.018l3.307,57.719l57.733,-23.825l26.455,-49.211l0.275,0.426Z" style="fill:#0e9be8;fill-opacity:0.38;fill-rule:nonzero;stroke:#000;stroke-opacity:0.24;stroke-width:2.24px;"/><path id="path2952" d="M1226.57,876.567l-0.964,11.345l-10.748,12.763l4.961,11.913l-10.748,5.105l-2.48,8.367l-15.57,0l-12.4,20.422l-14.055,7.658l-12.4,33.043l19.014,12.764l0,17.018l-7.44,10.069l18.188,15.316l1.653,11.062l7.44,-2.553l-5.787,15.316l8.268,2.553l-4.961,7.516l-24.801,-1.702l-4.134,7.658l0,31.483l7.441,12.622l0.826,23.825l7.579,16.735l11.987,5.53l-11.574,13.189l7.027,22.833l18.601,7.232l8.13,-4.821l15.156,13.189l18.739,-2.411l17.361,10.778l0,8.367l16.397,15.6l-14.054,2.411l-4.547,8.367l13.916,-0l-10.472,33.61l-32.655,-2.411l-1.102,15.6l15.156,19.287l-7.027,18.011l10.472,4.821l-5.787,10.779l-39.683,-7.233l-4.685,-7.233l0,-14.323l-24.526,9.502l-8.129,21.697l-7.027,-8.509l-11.574,7.233l1.102,10.778l-10.472,12.054l8.13,3.546l-0,24.109l-6.889,15.599l-18.739,0l-1.103,4.68l5.787,4.822l-8.129,14.465l7.027,7.233l3.445,-6.098l11.712,-0l13.916,15.6l-7.854,9.218l34.309,50.486l46.847,-2.978l0.965,-3.829l-11.574,-27.087l9.92,-10.21l39.545,-3.404l-3.307,-25.385l8.267,-5.106l-6.613,-11.912l14.881,-17.018l13.227,6.807l23.01,-13.472l-11.574,-17.018l1.654,-8.509l26.455,3.403l16.534,-17.018l21.357,0l-13.227,-27.087l-26.318,-15.316l-1.653,-88.21l13.227,-22.123l-6.613,-32.192l-14.881,-0l1.653,-17.018l11.574,-8.367l-4.96,-18.72l8.267,-6.807l9.921,-25.385l-1.654,-27.229l27.971,-21.982l-0,-20.421l-21.495,-11.913l-6.476,-20.279l21.357,-6.808l9.921,-18.719l-21.495,-13.615l24.802,-30.49l16.534,13.614l14.743,-20.421l-3.858,-15.884l-25.766,3.971l-23.148,-18.578l-4.96,-18.72l-16.397,-37.297l-59.386,15.316l0,16.876l-16.534,-3.404l-23.011,1.702l-3.306,-10.211l-5.65,0.568Z" style="fill:#0e9be8;fill-opacity:0.38;fill-rule:nonzero;stroke:#000;stroke-opacity:0.24;stroke-width:2.24px;"/><path id="path2872" d="M1039.46,788.073l-0.137,1.418l-11.574,8.509l-13.228,-3.403l-3.307,30.49l-23.01,-6.665l-14.881,11.771l-9.921,-6.808l-19.703,27.229l-13.228,-5.105l-9.92,11.912l11.574,30.491l-21.495,27.229l-13.09,5.105l-8.267,16.876l-28.108,-5.105l-16.397,34.036l-24.801,6.807l-3.307,16.876l16.534,17.018l11.574,-1.702l6.614,32.192l23.01,10.211l-9.92,18.72l-0.689,-0.142l5.373,11.629l16.397,-1.276l7.027,-10.778l16.259,12.054l10.472,-3.687l1.24,13.189l25.628,-10.778l4.685,5.956l11.574,-5.956l1.24,18.01l-8.129,5.957l6.889,9.643l16.396,-9.643l9.37,9.643l8.129,-7.232l8.13,4.821l4.684,-4.821l18.602,18.01l10.471,-9.643l8.268,10.92l-2.343,26.377l8.13,8.368l1.102,12.054l8.267,-7.233l15.157,19.146l31.415,-5.957l1.102,-16.876l15.157,2.411l-5.787,24.109l18.739,14.323l18.601,2.411l4.684,-10.778l-1.24,-20.421l7.027,-7.233l8.957,4.113l-7.579,-16.735l-0.826,-23.825l-7.441,-12.622l0,-31.483l4.134,-7.658l24.801,1.702l4.961,-7.516l-8.268,-2.553l5.787,-15.316l-7.44,2.553l-1.653,-11.062l-18.188,-15.316l7.44,-10.069l0,-17.018l-19.014,-12.764l12.4,-33.043l14.055,-7.658l12.4,-20.422l15.57,0l2.48,-8.367l10.748,-5.105l-4.961,-11.913l10.748,-12.763l0.964,-11.345l-28.935,2.836l-11.574,-37.298l-23.148,0l-13.09,-15.316l-16.534,6.807l-0,28.931l-13.228,1.702l-3.306,-18.72l-13.228,13.614l-9.783,-11.912l13.09,-15.317l-16.397,-18.577l-23.148,3.403l-24.663,-27.229l-3.17,-1.418Z" style="fill:#0e9be8;fill-opacity:0.38;fill-rule:nonzero;stroke:#000;stroke-opacity:0.24;stroke-width:2.24px;"/><path id="path2976" d="M1102.29,704.402l-5.787,5.389l2.342,5.956l-8.129,7.8l-0,6.098l-13.916,-1.276l-7.579,-5.389l0.551,12.621l-6.476,4.255l0,4.112l-7.578,2.978l-5.787,15.033l1.791,7.233l-3.582,6.665l-7.716,0.284l-0.965,11.912l3.17,1.418l24.663,27.229l23.148,-3.403l16.397,18.577l-13.09,15.317l9.783,11.912l13.228,-13.614l3.306,18.72l13.228,-1.702l-0,-28.931l8.129,-3.403l-6.476,-14.324l7.441,-22.974l5.787,-17.018l-7.441,-10.92l2.481,-17.869l4.96,-9.36l-0.827,-11.912l-45.056,-21.414Z" style="fill:#ff00f0;fill-opacity:0.41;fill-rule:nonzero;stroke:#000;stroke-opacity:0.24;stroke-width:2.24px;"/><path id="path2971" d="M1020.72,654.624l-5.787,9.644l8.819,4.112l-9.37,7.233l0,8.934l-11.712,5.531l-11.574,-4.822l-7.027,2.979l0,-4.255l11.023,-4.113l2.894,-9.643l-18.05,3.545l-8.543,-2.836l3.582,21.84l19.842,33.894l4.96,27.228l21.357,8.509l19.841,6.808l-0.551,6.949l7.716,-0.284l3.582,-6.665l-1.791,-7.233l5.787,-15.033l7.578,-2.978l0,-4.112l6.476,-4.255l-0.551,-12.621l7.579,5.389l13.916,1.276l-0,-6.098l8.129,-7.8l-2.342,-5.956l5.787,-5.389l-19.29,-9.077l-36.513,-34.319l-16.397,-2.127l-1.791,-4.255l-7.579,0Z" style="fill:#f0f;fill-opacity:0.27;fill-rule:nonzero;stroke:#000;stroke-opacity:0;stroke-width:2.24px;"/><path id="path2995" d="M1216.1,587.403l7.027,-15.883l8.267,4.963l2.48,-4.963l-6.614,-5.106l2.48,-5.105l5.787,2.553l9.094,-19.571l-5.787,-5.956l3.307,-11.062l-19.014,-18.578l2.204,-9.643l-21.219,-21.84l-21.357,-6.666l-8.267,16.877l-11.574,-1.702l-9.921,18.72l-18.05,-3.404l-19.841,-15.316l-9.92,10.211l1.653,18.719l24.388,0.426l8.267,2.553l7.854,3.829l6.063,6.239l2.893,3.83l0,12.338l-4.133,9.785l-5.65,6.382l-10.334,7.232l-3.306,2.553l9.507,15.6l-0.276,0.142l73.992,1.843Z" style="fill:#f397bc;fill-opacity:0.51;fill-rule:nonzero;stroke:#000;stroke-opacity:0.24;stroke-width:2.24px;"/><path id="path3000" d="M1319.86,651.22l5.511,-19.57l3.307,1.702l4.96,-7.658l7.441,4.254l10.609,0l-8.956,-25.385l-5.787,2.553l-6.614,-6.808l2.481,-10.21l9.92,-18.578l-9.094,3.261l-4.96,-13.472l-9.921,0.851l-21.356,-3.404l-11.575,-4.254l0,-15.316l-13.227,-14.466l-9.094,7.658l-8.267,-5.105l15.432,-21.698l-21.908,-11.345l-23.148,5.105l-0.276,-0.283l-2.204,9.643l19.014,18.578l-3.307,11.062l5.787,5.956l-9.094,19.571l-5.787,-2.553l-2.48,5.105l6.614,5.106l-2.48,4.963l-8.267,-4.963l-7.027,15.883l8.68,27.371l14.054,20.279l0,36.589l20.53,2.411l11.575,-7.516l15.707,-14.466l33.207,-0.851Z" style="fill:#f06;fill-opacity:0.33;fill-rule:nonzero;"/><clipPath id="_clip1"><path d="M1225.98,498.109l22.935,-5.059l23.411,12.124l-15.487,21.775l6.563,4.052l9.296,-7.828l14.245,15.578l-0,14.97l10.739,3.948l21.114,3.365l10.635,-0.912l4.872,13.232l10.781,-3.867l-11.221,21.012l-2.301,9.473l5.641,5.806l6.18,-2.726l9.884,28.015l-12.487,-0l-6.78,-3.877l-4.936,7.619l-2.989,-1.538l-5.364,19.047l-33.611,0.861l-15.468,14.244l-11.992,7.788l-21.919,-2.574l-0,-37.234l-13.951,-20.131l-8.86,-27.934l7.711,-17.429l8.317,4.993l1.529,-3.059l-6.605,-5.099l3.348,-6.894l5.77,2.546l8.307,-17.878l-5.707,-5.875l3.301,-11.042l-18.979,-18.544l2.802,-12.261l1.276,1.313Zm43.03,7.867l-20.405,-10.567l-22.419,4.945l-1.824,7.979l19.05,18.613l-3.313,11.08l5.866,6.038l-9.88,21.264l-5.805,-2.561l-1.611,3.318l6.622,5.112l-3.432,6.867l-8.217,-4.933l-6.343,14.338l8.501,26.806l14.158,20.429l-0,35.943l19.141,2.248l11.156,-7.245l15.948,-14.686l32.802,-0.841l5.659,-20.094l3.624,1.865l4.985,-7.697l8.101,4.632l8.732,0l-8.029,-22.755l-5.394,2.379l-7.586,-7.808l2.659,-10.949l8.621,-16.144l-7.407,2.657l-5.049,-13.713l-9.206,0.79l-21.6,-3.442l-12.409,-4.562l-0,-15.662l-12.21,-13.352l-8.892,7.488l-9.971,-6.159l15.377,-21.621Z"/></clipPath><g clip-path="url(#_clip1)"></g><path id="path2867" d="M1393.85,412.827l-13.228,1.135l0,5.672l-18.187,4.964l-18.05,28.931l-19.842,15.316l-32.931,13.472l-19.841,23.825l-1.102,-0.567l-15.432,21.698l8.267,5.105l9.094,-7.658l13.227,14.466l0,15.316l11.575,4.254l21.356,3.404l9.921,-0.851l4.96,13.472l9.094,-3.261l-9.92,18.578l-2.481,10.21l6.614,6.808l5.787,-2.553l8.956,25.385l-10.609,0l-7.441,-4.254l-4.96,7.658l-3.307,-1.702l-5.511,19.57l1.378,0l12.4,9.36l25.491,17.727l19.014,15.317l0.827,10.21l26.317,25.385l18.188,6.24l0,-8.792l-9.921,-21.982l-16.534,-37.297l13.228,-5.106l-0,-10.211l-18.05,-8.509l-0,-33.894l16.396,-10.21l6.614,-42.404l19.841,-27.228l-13.227,-0l-31.278,-64.385l18.05,-11.912l-14.743,-40.702Z" style="fill:#bf2362;fill-opacity:0.42;fill-rule:nonzero;stroke:#000;stroke-opacity:0.06;stroke-width:1.12px;"/><path id="path3019" d="M1871.55,1502.12l-10.196,-17.727l-26.868,12.055l-4.547,21.556l-14.054,-21.556l-12.814,-27.655l-5.788,-33.61l-19.841,20.422l-11.712,-13.189l-22.183,-1.277l-2.205,10.778l-29.21,-13.189l-9.37,-9.501l29.211,-27.654l1.102,-37.156l9.37,-6.098l2.342,-15.6l-12.814,-13.189l-18.739,10.92l-12.814,5.956l-23.286,1.135l-17.499,-39.567l-26.731,1.276l0,-18.011l-21.081,-7.232l-4.685,-22.833l-12.814,3.688l-8.129,-15.6l-27.971,-0l-27.971,16.734l-22.183,-12.054l-2.342,-15.6l-11.575,12.054l-21.081,-9.643l-11.574,8.509l18.601,29.923l-50.154,51.621l2.342,40.843l-27.832,39.851l-37.616,-29.782l-20.806,0l-16.534,17.018l-26.455,-3.403l-1.654,8.509l11.574,17.018l-23.01,13.472l-13.227,-6.807l-14.881,17.018l6.613,11.912l-8.267,5.106l3.307,25.385l-39.545,3.404l-9.92,10.21l11.574,27.087l-0.965,3.829l5.925,-0.425l11.574,27.229l-9.92,33.894l18.05,27.228l51.118,6.666l0,15.316l41.336,17.018l13.09,52.614l-23.01,67.788l-26.455,-20.28l-42.852,67.788l14.881,6.808l9.921,-16.877l57.732,0l19.704,-18.719l29.624,6.807l1.653,10.211l44.643,3.403l23.01,-18.72l23.148,27.087l44.505,-8.367l52.772,-25.527l0,-30.49l65.862,-3.404l-14.743,44.105l29.624,17.018l46.159,-45.807l69.306,-3.403l-3.307,-44.247l31.278,-13.472l-0,-17.018l36.238,-15.317l41.198,-62.682l-0,-28.931l-14.743,-5.105l-11.574,-52.614l11.16,-28.931Z" style="fill:#a436d5;fill-opacity:0.56;fill-rule:nonzero;stroke:#000;stroke-opacity:0.24;stroke-width:2.24px;"/><path id="path2862" d="M1904.9,243.073l-19.842,20.422l9.921,35.596l-67.515,-20.422l-18.188,34.036l-11.574,-32.334l-26.317,8.509l-0,15.316l-44.505,-5.105l-41.198,25.385l-11.575,-21.982l-19.841,0l-19.703,-27.229l-33.069,25.527l4.96,11.913l-37.891,21.981l-23.148,-32.192l-19.703,25.385l-29.762,-45.806l-36.238,-16.877l-47.536,35.88l-19.979,35.312l19.703,-1.702l0,20.422l-8.267,1.702l-14.743,32.192l-24.802,5.106l0,11.912l16.534,3.404l0,4.538l13.228,-1.135l14.743,40.702l-18.05,11.912l23.424,48.359l10.196,-6.239l20.944,8.509l31.553,-3.688l5.787,-11.912l22.183,11.912l30.313,-9.501l4.685,15.599l-15.157,16.735l22.046,-0l1.24,16.734l25.629,6.098l18.601,5.956l17.499,-14.323l22.183,-9.644l3.583,34.745l-7.027,28.789l3.444,18.011l20.944,-1.135l4.685,23.967l-4.685,19.145l16.396,19.288l1.103,13.188l25.766,29.924l16.259,-22.691l9.369,-1.276l-1.24,-16.735l18.739,-1.276l18.601,21.698l9.369,70.766l27.971,-7.232l12.814,13.189l9.37,-1.135l37.202,39.567l22.184,-1.277l12.814,6.099l3.444,15.599l30.313,13.189l11.712,-10.778l11.712,-3.687l10.472,-37.156l13.916,1.135l17.499,6.098l4.685,-13.189l-15.157,-13.189l3.583,-20.422l15.156,-6.098l9.37,-37.865l26.73,-14.89l27.971,-12.055l30.313,0l31.415,7.233l51.395,4.822l2.342,-22.833l9.232,-7.091l32.655,-1.276l61.866,-1.135l5.787,-4.963l3.307,-23.542l-21.357,-15.316l-18.188,6.807l-26.455,-16.876l-1.515,-23.825l-8.267,-8.509l-3.307,-61.123l-39.545,40.843l-14.881,-17.018l-16.534,-45.806l-37.892,20.28l-13.227,-16.877l-4.96,-38.999l-19.704,-8.509l-3.307,-27.229l-65.999,-44.105l31.415,-42.403l-38.029,-56.017l1.653,-20.28l-84.049,-25.527Z" style="fill:#b100ff;fill-opacity:0.22;fill-rule:nonzero;stroke:#000;stroke-opacity:0.24;stroke-width:2.24px;"/><path id="path3024" d="M1433.12,800.128l20.255,-6.949l19.703,26.377l0,14.466l12.814,-10.778l9.37,13.189l24.526,-0l13.916,-15.6l-1.102,-27.654l25.628,-16.735l-5.787,-23.967l13.917,-9.643l1.24,-14.465l22.183,15.599l12.814,-2.411l-2.342,-33.61l16.259,-7.091l22.183,-3.687l7.027,9.643l3.445,-9.643l20.806,-2.127l-0.965,-12.196l-16.396,-19.288l4.685,-19.145l-4.685,-23.967l-20.944,1.135l-3.444,-18.011l7.027,-28.789l-3.583,-34.745l-22.183,9.644l-17.499,14.323l-18.601,-5.956l-25.629,-6.098l-1.24,-16.734l-22.046,-0l15.157,-16.735l-4.685,-15.599l-30.313,9.501l-22.183,-11.912l-5.787,11.912l-31.553,3.688l-20.944,-8.509l-10.196,6.239l7.854,16.026l13.227,-0l-19.841,27.228l-6.614,42.404l-16.396,10.21l-0,33.894l18.05,8.509l-0,10.211l-13.228,5.106l16.534,37.297l9.921,21.982l0,35.737l-13.227,16.877l-0,18.719l23.148,1.702l-0.276,0.426Z" style="fill:#f5b5ff;fill-opacity:0.88;fill-rule:nonzero;stroke:#000;stroke-opacity:0.24;stroke-width:2.24px;"/><path id="path3034" d="M1739,683.98l-18.739,1.276l1.24,16.735l-9.369,1.276l-16.259,22.691l-25.766,-29.924l-0.138,-0.992l-20.806,2.127l-3.445,9.643l-7.027,-9.643l-22.183,3.687l-16.259,7.091l2.205,32.334l0.137,1.276l-12.814,2.411l-22.183,-15.599l-1.24,14.465l-13.917,9.643l5.787,23.967l-25.628,16.735l1.102,27.654l-13.916,15.6l-24.526,-0l-9.37,-13.189l-12.814,10.778l0,-14.466l-19.703,-26.377l-20.255,6.949l-9.645,16.592l0,13.473l-18.188,13.614l6.614,11.913l8.267,-0l-3.307,11.912l-26.317,33.894l13.09,20.422l4.96,20.28l-14.743,20.421l-16.534,-13.614l-24.802,30.49l21.495,13.615l-9.921,18.719l-21.357,6.808l6.476,20.279l21.495,11.913l-0,20.421l-27.971,21.982l1.654,27.229l-9.921,25.385l-8.267,6.807l4.96,18.72l-11.574,8.367l-1.653,17.018l14.881,-0l6.613,32.192l-13.227,22.123l1.653,88.21l26.318,15.316l13.227,27.087l-0.551,0l37.616,29.782l27.832,-39.851l-2.342,-40.843l50.154,-51.621l-18.601,-29.923l11.574,-8.509l21.081,9.643l11.575,-12.054l2.342,15.6l22.183,12.054l27.971,-16.734l27.971,-0l8.129,15.6l12.814,-3.688l4.685,22.833l21.081,7.232l0,18.011l26.731,-1.276l17.499,39.567l23.286,-1.135l12.814,-5.956l18.739,-10.92l11.712,12.054l1.102,-1.134l13.916,-19.287l9.37,13.189l16.396,-11.913l4.547,-12.054l7.027,-3.546l10.472,-6.098l15.157,20.422l-2.343,-50.345l-15.156,1.134l-12.814,-22.69l1.24,-26.52l-15.157,-10.778l2.343,-27.512l17.498,-1.277l17.499,-22.832l1.103,-49.21l55.941,-9.502l11.712,-27.654l-1.24,-28.789l-19.842,-15.6l-25.628,20.422l-5.787,-23.967l-18.877,-4.68l0.414,-2.694l21.357,-28.931l34.722,-10.211l6.614,-21.981l34.584,-11.913l19.841,10.211l4.823,-39l21.494,-27.228l-19.841,-10.211l-2.48,-34.745l-10.61,9.785l-30.313,-13.189l-3.444,-15.599l-12.814,-6.099l-22.184,1.277l-37.202,-39.567l-9.37,1.135l-12.814,-13.189l-27.971,7.232l-9.369,-70.766l-18.601,-21.698Z" style="fill:#a436d5;fill-opacity:0.38;fill-rule:nonzero;stroke:#000;stroke-opacity:0.24;stroke-width:2.24px;"/><path id="path2899" d="M1282.52,720.427l7.44,8.792l-8.267,7.659l11.574,-0l6.476,-11.062l9.921,7.658l17.361,2.553l14.054,2.552l4.133,5.957l2.343,11.061l-0,9.36l-3.169,6.807l-4.961,10.92l8.13,0.851l-0,4.255l7.44,-0.851l6.614,2.552l5.787,10.211l-0.827,5.956l9.921,4.255l11.574,-0.851l4.96,-5.105l8.13,-1.702l3.307,4.254l-2.481,9.36l-5.787,-0.851l5.787,8.367l6.614,0l4.134,-14.323l11.712,5.956l8.956,-15.316l-23.148,-1.702l-0,-18.719l13.227,-16.877l0,-26.945l-18.188,-6.24l-26.317,-25.385l-0.827,-10.21l-19.014,-15.317l-25.491,-17.727l-12.4,-9.36l-34.585,0.851l-15.707,14.466l-11.575,7.516l-20.53,-2.411l-4.133,22.549l7.578,1.843l3.445,-10.778l8.267,-5.389l28.522,1.135l8.129,9.076l-1.102,14.891l-7.027,15.458Z" style="fill:#f9621b;fill-opacity:0.3;fill-rule:nonzero;stroke:#000;stroke-opacity:0.24;stroke-width:2.24px;"/><path id="path3058" d="M1185.24,842.105l0.827,0l11.574,37.298l34.585,-3.404l3.306,10.211l23.011,-1.702l16.534,3.404l0,-16.876l59.386,-15.316l16.397,37.297l4.96,18.72l23.148,18.578l25.766,-3.971l-1.102,-4.396l-13.09,-20.422l26.317,-33.894l3.307,-11.912l-8.267,-0l-6.614,-11.913l18.188,-13.614l0,-13.473l0.965,-1.702l-11.712,-5.956l-4.134,14.323l-6.614,0l-5.787,-8.367l5.787,0.851l2.481,-9.36l-3.307,-4.254l-8.13,1.702l-4.96,5.105l-11.574,0.851l-9.921,-4.255l0.827,-5.956l-5.787,-10.211l-6.614,-2.552l-7.44,0.851l-0,-4.255l-8.13,-0.851l4.961,-10.92l3.169,-6.807l-0,-9.36l-2.343,-11.061l-4.133,-5.957l-14.054,-2.552l-17.361,-2.553l-9.921,-7.658l-6.476,11.062l-11.574,-0l8.267,-7.659l-7.44,-8.65l-29.211,-2.411l-27.971,-9.502l-21.494,13.189l-15.708,7.8l0.413,8.083l7.441,10.211l-2.48,9.36l6.613,16.025l-9.92,13.615l1.653,11.061l6.614,1.702l8.129,-5.105l14.881,-0l5.787,9.36l-4.96,1.701l5.787,11.062l2.48,14.324l-6.614,1.701l-3.306,-5.105l-2.481,1.702l-7.44,-4.255l0.827,5.106l-18.05,7.658l-8.268,4.254Z" style="fill:#f60;fill-opacity:0.39;fill-rule:nonzero;stroke:#000;stroke-opacity:0;stroke-width:2.24px;"/><path id="path3053" d="M1185.24,842.105l8.268,-4.254l18.05,-7.658l-0.827,-5.106l7.44,4.255l2.481,-1.702l3.306,5.105l6.614,-1.701l-2.48,-14.324l-5.787,-11.062l4.96,-1.701l-5.787,-9.36l-14.881,-0l-8.129,5.105l-6.614,-1.702l-1.653,-11.061l9.92,-13.615l-6.613,-16.025l2.48,-9.36l-7.441,-10.211l-0.413,-8.083l-1.24,0.567l-39.545,-4.254l0.827,11.77l-4.96,9.36l-2.481,17.869l7.441,10.92l-5.787,17.018l-7.441,22.974l6.476,14.324l8.405,-3.404l13.09,15.316l22.321,0Z" style="fill:#c87137;fill-opacity:0.43;fill-rule:nonzero;stroke:#000;stroke-opacity:0.24;stroke-width:2.24px;"/><path id="path2830" d="M518.352,47.934l-3.307,23.825l-33.068,28.789l-1.654,62.824l-18.05,44.105l8.267,10.211l-33.068,47.508l1.653,39l-2.204,1.702l3.858,5.105l28.108,-5.105l29.624,16.876l4.96,22.123l41.199,3.404l19.841,6.807l13.089,-22.123l24.802,10.21l6.614,-21.981l32.931,-11.913l18.188,28.789l14.743,0l-3.307,23.825l-8.13,23.684l14.744,22.123l23.148,-11.913l-3.307,-15.316l27.97,-21.981l18.188,33.894l34.585,-6.807l4.96,20.421l26.455,-6.807l23.01,35.596l59.386,-6.807l8.267,-20.28l19.704,5.105l14.467,-7.374l0.414,-1.135l8.267,-28.079l13.916,22.974l35.136,7.658l14.054,-6.098l9.37,37.298l22.045,-1.277l4.685,-9.501l19.841,21.556l24.526,3.545l12.814,1.276l-2.342,-27.654l-7.027,-4.822l15.156,-23.967l-13.916,-23.966l9.232,-4.822l-0,-18.011l-2.343,-10.778l-1.102,-20.422l10.472,-9.643l32.655,-56.301l-1.24,-37.298l36.238,-27.512l-0,-0.142l-39.269,-53.89l-21.495,1.702l-23.01,38.999l-56.079,15.316l13.227,-21.981l-19.841,-27.229l-51.119,33.894l-4.96,-16.876l1.653,-11.913l-18.05,-15.316l-49.465,-3.403l-1.653,-25.385l-16.535,-1.702l-82.396,49.21l-21.495,-11.913l-32.931,28.931l-11.574,-11.913l-42.851,18.578l-14.881,-20.279l-36.238,8.509l-37.891,-28.931l-18.188,1.702l-16.534,11.912l-21.357,-6.807l-21.495,-32.192l21.495,-32.334l-19.842,-10.069l-3.306,-15.316l-11.437,-1.702Z" style="fill:#0f6;fill-opacity:0.29;fill-rule:nonzero;stroke:#000;stroke-opacity:0.24;stroke-width:2.24px;"/><path id="path3082" d="M1105.74,495.364l-20.806,-14.181l-0,-15.6l5.787,-5.956l-1.378,-7.091l-2.067,-0.142l-24.526,-3.545l-19.841,-21.556l-4.685,9.501l-22.045,1.277l-9.37,-37.298l-14.054,6.098l-35.136,-7.658l-13.916,-22.974l-8.267,28.079l-0.414,1.135l2.067,-1.135l4.96,40.702l19.704,5.105l18.188,10.211l11.574,20.279l3.307,22.124l24.663,6.807l3.307,47.508l-10.471,20.138l20.392,-13.33l18.188,-15.317l21.357,-20.421l9.92,-8.367l11.574,-3.404l13.09,-1.702l-1.653,-18.719l0.551,-0.568Z" style="fill:#256d42;fill-opacity:0.46;fill-rule:nonzero;stroke:#000;stroke-opacity:0.24;stroke-width:2.24px;"/><path id="path3077" d="M1192.68,175.143l-16.534,13.615l-0.276,-0.284l-36.238,27.512l1.24,37.298l-32.655,56.301l-10.472,9.643l1.102,20.422l2.343,10.778l-0,18.011l-9.232,4.822l13.916,23.966l-15.156,23.967l7.027,4.822l2.342,27.654l-10.747,-1.134l1.378,7.091l-5.787,5.956l-0,15.6l20.806,14.181l9.369,-9.643l19.841,15.316l18.05,3.404l9.921,-18.72l11.574,1.702l8.267,-16.877l21.357,6.666l21.495,22.123l23.148,-5.105l23.01,11.912l19.841,-23.825l32.931,-13.472l19.842,-15.316l18.05,-28.931l18.187,-4.964l0,-10.21l-16.534,-3.404l0,-11.912l24.802,-5.106l14.743,-32.192l8.267,-1.702l0,-20.422l-19.703,1.702l19.979,-35.312l-1.929,1.418l-36.238,-38.999l-0,-25.527l-13.228,-0l-1.653,32.334l-52.772,-11.913l11.574,-18.719l-42.852,-33.895l-16.534,16.877l-0,-25.386l-42.852,-3.403l-23.01,-18.72Z" style="fill:#17ac53;fill-opacity:0.29;fill-rule:nonzero;stroke:#000;stroke-opacity:0.24;stroke-width:2.24px;"/><path id="path3093" d="M1812.17,1021.36l18.877,4.68l5.787,23.967l25.628,-20.422l19.842,15.6l1.24,28.789l-11.712,27.654l-55.941,9.502l-1.103,49.21l-17.499,22.832l-17.498,1.277l-2.343,27.512l15.157,10.778l-1.24,26.52l12.814,22.69l15.156,-1.134l2.343,50.345l-15.157,-20.422l-10.472,6.098l-7.027,3.546l-4.547,12.054l-16.396,11.913l-9.37,-13.189l-13.916,19.287l-1.102,1.134l1.102,1.135l-2.342,15.6l-9.37,6.098l-1.102,37.156l-29.211,27.654l9.37,9.501l29.21,13.189l2.205,-10.778l22.183,1.277l11.712,13.189l19.841,-20.422l5.788,33.61l12.814,27.655l14.054,21.556l4.547,-21.556l26.868,-12.055l10.196,17.727l15.157,-38.857l57.732,-5.106l21.495,-20.421l57.733,-8.509l14.743,13.614l67.653,-5.105l31.277,-23.684l80.881,8.509l-0,-35.737l49.465,11.912l1.654,-42.403l-21.495,-22.123l13.227,-37.298l-29.761,-45.807l54.425,-23.825l-3.307,-32.192l-23.01,-11.913l14.743,-18.578l24.802,6.808l39.544,-37.44l-26.317,-37.298l31.278,-18.719l21.494,-4.964l-9.92,-20.421l51.118,-20.422l-11.574,-27.087l-24.801,0l9.921,-15.316l-34.585,-6.807l-41.198,25.527l4.96,-40.702l-14.881,-25.526l27.971,-25.386l-4.823,-78.14l-29.761,-0l-1.654,-28.789l-44.505,-1.702l11.574,-37.298l34.585,-6.807l-1.654,-28.93l-31.277,1.702l3.307,-18.578l34.584,6.665l39.545,-10.069l-0,-61.123l-46.159,13.615l0,-0.284l-5.787,4.963l-61.866,1.135l-32.655,1.276l-9.232,7.091l-2.342,22.833l-51.395,-4.822l-31.415,-7.233l-30.313,0l-27.971,12.055l-26.73,14.89l-9.37,37.865l-15.156,6.098l-3.583,20.422l15.157,13.189l-4.685,13.189l-17.499,-6.098l-13.916,-1.135l-10.472,37.156l-11.712,3.687l-1.102,0.993l2.48,34.745l19.841,10.211l-21.494,27.228l-4.823,39l-19.841,-10.211l-34.584,11.913l-6.614,21.981l-34.722,10.211l-21.357,28.931l-0.414,2.694Z" style="fill:#a436d5;fill-opacity:0.49;fill-rule:nonzero;stroke:#000;stroke-opacity:0.24;stroke-width:2.24px;"/><path id="path3099" d="M409.226,933.719l1.929,1.701l-0,37.44l18.05,23.683l19.841,-3.403l19.841,49.21l54.288,28.93l-9.783,32.193l52.772,8.509l23.011,40.701l-4.961,69.632l34.585,55.875l21.494,-8.367l13.228,47.509l54.425,15.174l21.357,-26.378l0,-44.814l42.852,-71.333l1.653,-11.913l-29.624,-27.087l0,-17.018l6.614,-8.509l11.574,6.807l21.357,1.702l16.534,8.509l19.704,0l13.227,-8.509l-3.307,-16.876l16.535,-18.72l9.92,-8.509l-9.92,-15.316l-0,-11.771l18.05,3.404l9.92,-18.72l-23.01,-10.211l-6.614,-32.192l-11.574,1.702l-16.534,-17.018l3.307,-16.876l24.801,-6.807l16.397,-34.036l28.108,5.105l8.267,-16.876l13.09,-5.105l21.495,-27.229l-2.205,-5.956l-14.054,-3.546l-5.787,-8.934l-9.369,-0l-0.552,-3.687l6.89,-5.389l-3.445,-4.822l4.685,-2.411l-0,-11.913l-9.921,-10.778l14.054,-1.843l0,-2.411l8.681,-2.411l3.445,-2.978l0.689,-7.8l2.893,-4.255l-1.791,-7.8l1.791,-11.912l-11.161,-3.687l-6.889,-5.389l-8.267,-6.524l-6.338,3.546l-18.05,-12.055l-2.894,9.644l-22.735,-0l-7.578,6.665l-4.133,-6.665l-10.472,-1.844l-2.894,-5.956l-5.236,-1.135l-1.24,-6.665l-12.263,-0l-3.444,2.978l-5.236,-3.545l-9.37,1.134l-8.68,10.778l-2.343,8.509l-21.081,-5.389l-6.338,-10.211l-7.027,0.568l-9.37,-9.644l-3.444,-9.502l-1.103,-17.443l5.236,-1.276l4.547,-9.502l-4.547,-4.822l0,-8.367l-9.369,-1.844l-15.157,-7.232l0,-8.367l11.023,2.978l-2.342,-13.189l9.369,-10.211l0,-0.142l-4.96,-8.934l-16.397,-4.255l-9.231,-14.039l-12.539,1.56l-8.129,5.956l-17.499,3.687l-16.397,-15.6l-15.156,5.957l-0,-15.6l-25.628,-0l-19.842,-16.735l0,8.368l-10.471,7.232l-8.13,14.324l-19.29,-12.055l-15.708,6.098l-1.102,12.055l-10.472,23.967l-5.924,23.967l1.24,30.065l-10.472,14.323l-1.24,12.055l25.628,-0l0,20.421l-8.129,7.091l-18.602,6.098l0,11.913l13.917,16.876l-16.259,-2.411l-19.841,32.334l33.758,8.367l-1.103,33.611l-23.286,1.276l-17.499,10.778l-27.97,-2.411l-21.081,32.334l-12.263,9.786Z" style="fill:#fff300;fill-opacity:0.28;fill-rule:nonzero;stroke:#000;stroke-opacity:0.24;stroke-width:2.24px;"/><path id="path3874" d="M1147.35,725.958l39.545,4.254l16.948,-8.367l21.494,-13.189l27.971,9.502l29.211,2.411l7.027,-15.6l1.102,-14.891l-8.129,-9.076l-28.522,-1.135l-8.267,5.389l-3.445,10.778l-7.578,-1.843l4.133,-22.549l0,-36.589l-14.054,-20.279l-8.68,-27.371l-73.992,-1.843l-15.432,7.09l-15.707,14.466l-10.61,14.465l-30.589,2.411l-9.92,7.658l-9.783,16.167l-4.134,12.763l37.065,34.745l64.346,30.491l0,0.142Z" style="fill:none;fill-rule:nonzero;stroke:#000;stroke-opacity:0.24;stroke-width:2.24px;"/><path id="path3876" d="M518.352,47.934l-3.307,23.825l-33.068,28.789l-1.654,62.824l-18.05,44.105l8.267,10.211l-33.068,47.508l1.653,39l-2.204,1.702l3.858,5.105l28.108,-5.105l29.624,16.876l4.96,22.123l41.199,3.404l19.841,6.807l13.089,-22.123l24.802,10.21l6.614,-21.981l32.931,-11.913l18.188,28.789l14.743,0l-3.307,23.825l-8.13,23.684l14.744,22.123l23.148,-11.913l-3.307,-15.316l27.97,-21.981l18.188,33.894l34.585,-6.807l4.96,20.421l26.455,-6.807l23.01,35.596l59.386,-6.807l8.267,-20.28l19.704,5.105l14.467,-7.374l2.067,-1.135l4.96,40.702l19.704,5.105l18.188,10.211l11.574,20.279l3.307,22.124l24.663,6.807l3.307,47.508l-10.471,20.138l20.392,-13.33l18.188,-15.317l21.357,-20.421l9.92,-8.367l11.574,-3.404l13.09,-1.702l-1.653,-18.719l9.92,-10.211l19.841,15.316l18.05,3.404l9.921,-18.72l11.574,1.702l8.267,-16.877l21.357,6.666l21.495,22.123l23.148,-5.105l23.01,11.912l19.841,-23.825l32.931,-13.472l19.842,-15.316l18.05,-28.931l18.187,-4.964l0,-10.21l-16.534,-3.404l0,-11.912l24.802,-5.106l14.743,-32.192l8.267,-1.702l0,-20.422l-19.703,1.702l19.979,-35.312l-1.929,1.418l-36.238,-38.999l-0,-25.527l-13.228,-0l-1.653,32.334l-52.772,-11.913l11.574,-18.719l-42.852,-33.895l-16.534,16.877l-0,-25.386l-42.852,-3.403l-23.01,-18.72l-16.534,13.615l-0.276,-0.284l-0,-0.142l-39.269,-53.89l-21.495,1.702l-23.01,38.999l-56.079,15.316l13.227,-21.981l-19.841,-27.229l-51.119,33.894l-4.96,-16.876l1.653,-11.913l-18.05,-15.316l-49.465,-3.403l-1.653,-25.385l-16.535,-1.702l-82.396,49.21l-21.495,-11.913l-32.931,28.931l-11.574,-11.913l-42.851,18.578l-14.881,-20.279l-36.238,8.509l-37.891,-28.931l-18.188,1.702l-16.534,11.912l-21.357,-6.807l-21.495,-32.192l21.495,-32.334l-19.842,-10.069l-3.306,-15.316l-11.437,-1.702Z" style="fill:none;fill-rule:nonzero;stroke:#000;stroke-width:8.05px;"/><path id="path3949" d="M414.461,299.091l-51.118,23.683l-49.466,-4.964l-1.653,16.876l-24.802,18.72l-23.01,-30.632l-1.653,54.316l26.317,34.035l-23.011,44.105l46.159,-1.701l6.614,13.614l-19.842,18.578l19.842,64.526l23.01,-1.702l11.436,25.527l16.672,37.298l-21.494,23.683l39.544,20.422l0,21.981l16.535,6.808l-18.188,45.806l1.653,73.036l47.812,32.192l-54.425,74.737l27.833,23.684l1.929,1.701l-0,37.44l18.05,23.683l19.841,-3.403l19.841,49.21l54.288,28.93l-9.783,32.193l52.772,8.509l23.011,40.701l-4.961,69.632l34.585,55.875l21.494,-8.367l13.228,47.509l54.425,15.174l21.357,-26.378l0,-44.814l42.852,-71.333l1.653,-11.913l-29.624,-27.087l0,-17.018l6.614,-8.509l11.574,6.807l21.357,1.702l16.534,8.509l19.704,0l13.227,-8.509l-3.307,-16.876l16.535,-18.72l9.92,-8.509l-9.92,-15.316l-0,-11.771l18.05,3.404l9.92,-18.72l-23.01,-10.211l-6.614,-32.192l-11.574,1.702l-16.534,-17.018l3.307,-16.876l24.801,-6.807l16.397,-34.036l28.108,5.105l8.267,-16.876l13.09,-5.105l21.495,-27.229l-2.205,-5.956l-9.369,-24.535l9.92,-11.912l13.228,5.105l19.703,-27.229l9.921,6.808l14.881,-11.771l23.01,6.665l3.307,-30.49l13.228,3.403l11.574,-8.509l1.653,-20.279l-19.841,-6.808l-21.357,-8.509l-4.96,-27.228l-16.81,-28.789l-3.032,-5.105l-8.267,-50.912l11.574,-27.087l8.267,-17.018l21.357,-11.913l14.881,-28.789l-3.307,-47.508l-24.663,-6.807l-3.307,-22.124l-11.574,-20.279l-18.188,-10.211l-19.704,-5.105l-4.96,-40.702l-16.534,8.509l-19.704,-5.105l-8.267,20.28l-59.386,6.807l-8.405,-13.047l-14.605,-22.549l-26.455,6.807l-4.96,-20.421l-34.585,6.807l-18.188,-33.894l-27.97,21.981l3.307,15.316l-23.148,11.913l-14.744,-22.123l8.13,-23.684l3.307,-23.825l-14.743,0l-18.188,-28.789l-32.931,11.913l-6.614,21.981l-24.802,-10.21l-13.089,22.123l-19.841,-6.807l-41.199,-3.404l-4.96,-22.123l-29.624,-16.876l-28.108,5.105l-3.858,-5.105l-11.023,8.509l-11.437,-15.316Z" style="fill:none;fill-rule:nonzero;stroke:#000;stroke-width:8.05px;"/><path id="path3958" d="M1039.46,788.073l-0.137,1.418l-11.574,8.509l-13.228,-3.403l-3.307,30.49l-23.01,-6.665l-14.881,11.771l-9.921,-6.808l-19.703,27.229l-13.228,-5.105l-9.92,11.912l11.574,30.491l-21.495,27.229l-13.09,5.105l-8.267,16.876l-28.108,-5.105l-16.397,34.036l-24.801,6.807l-3.307,16.876l16.534,17.018l11.574,-1.702l6.614,32.192l23.01,10.211l-9.92,18.72l-0.689,-0.142l-17.361,-3.262l-0,11.771l9.92,15.316l-9.92,8.509l-16.535,18.72l3.307,16.876l-13.227,8.509l-19.704,0l-16.534,-8.509l-21.357,-1.702l-11.574,-6.807l-6.614,8.509l0,17.018l29.624,27.087l-1.653,11.913l-42.852,71.333l0,44.814l3.307,-4.113l19.841,28.789l-11.574,47.509l46.159,3.403l11.574,66.228l-21.495,35.596l6.614,18.72l-21.357,33.894l26.317,34.036l75.783,3.404l11.574,-17.018l26.455,-0l8.129,-18.72l14.881,11.913l39.545,-6.808l4.96,-17.018l24.802,5.106l31.277,-49.21l29.624,17.018l3.307,57.719l57.733,-23.825l26.455,-49.211l0.275,0.426l34.309,50.486l46.847,-2.978l0.965,-3.829l-11.574,-27.087l9.92,-10.21l39.545,-3.404l-3.307,-25.385l8.267,-5.106l-6.613,-11.912l14.881,-17.018l13.227,6.807l23.01,-13.472l-11.574,-17.018l1.654,-8.509l26.455,3.403l16.534,-17.018l21.357,0l-13.227,-27.087l-26.318,-15.316l-1.653,-88.21l13.227,-22.123l-6.613,-32.192l-14.881,-0l1.653,-17.018l11.574,-8.367l-4.96,-18.72l8.267,-6.807l9.921,-25.385l-1.654,-27.229l27.971,-21.982l-0,-20.421l-21.495,-11.913l-6.476,-20.279l21.357,-6.808l9.921,-18.719l-21.495,-13.615l24.802,-30.49l16.534,13.614l14.743,-20.421l-3.858,-15.884l-25.766,3.971l-23.148,-18.578l-4.96,-18.72l-16.397,-37.297l-59.386,15.316l0,16.876l-16.534,-3.404l-23.011,1.702l-3.306,-10.211l-5.65,0.568l-28.935,2.836l-11.574,-37.298l-23.148,0l-13.09,-15.316l-16.534,6.807l-0,28.931l-13.228,1.702l-3.306,-18.72l-13.228,13.614l-9.783,-11.912l13.09,-15.317l-16.397,-18.577l-23.148,3.403l-24.663,-27.229l-3.17,-1.418Z" style="fill:none;fill-rule:nonzero;stroke:#000;stroke-width:8.05px;"/><path id="path3965" d="M1904.9,243.073l-19.842,20.422l9.921,35.596l-67.515,-20.422l-18.188,34.036l-11.574,-32.334l-26.317,8.509l-0,15.316l-44.505,-5.105l-41.198,25.385l-11.575,-21.982l-19.841,0l-19.703,-27.229l-33.069,25.527l4.96,11.913l-37.891,21.981l-23.148,-32.192l-19.703,25.385l-29.762,-45.806l-36.238,-16.877l-47.536,35.88l-19.979,35.312l19.703,-1.702l0,20.422l-8.267,1.702l-14.743,32.192l-24.802,5.106l0,11.912l16.534,3.404l0,4.538l13.228,-1.135l14.743,40.702l-18.05,11.912l23.424,48.359l7.854,16.026l13.227,-0l-19.841,27.228l-6.614,42.404l-16.396,10.21l-0,33.894l18.05,8.509l-0,10.211l-13.228,5.106l16.534,37.297l9.921,21.982l0,35.737l-13.227,16.877l-0,18.719l23.148,1.702l-0.276,0.426l-9.645,16.592l0,13.473l-18.188,13.614l6.614,11.913l8.267,-0l-3.307,11.912l-26.317,33.894l13.09,20.422l4.96,20.28l-14.743,20.421l-16.534,-13.614l-24.802,30.49l21.495,13.615l-9.921,18.719l-21.357,6.808l6.476,20.279l21.495,11.913l-0,20.421l-27.971,21.982l1.654,27.229l-9.921,25.385l-8.267,6.807l4.96,18.72l-11.574,8.367l-1.653,17.018l14.881,-0l6.613,32.192l-13.227,22.123l1.653,88.21l26.318,15.316l13.227,27.087l-21.357,0l-16.534,17.018l-26.455,-3.403l-1.654,8.509l11.574,17.018l-23.01,13.472l-13.227,-6.807l-14.881,17.018l6.613,11.912l-8.267,5.106l3.307,25.385l-39.545,3.404l-9.92,10.21l11.574,27.087l-0.965,3.829l5.925,-0.425l11.574,27.229l-9.92,33.894l18.05,27.228l51.118,6.666l0,15.316l41.336,17.018l13.09,52.614l-23.01,67.788l-26.455,-20.28l-42.852,67.788l14.881,6.808l9.921,-16.877l57.732,0l19.704,-18.719l29.624,6.807l1.653,10.211l44.643,3.403l23.01,-18.72l23.148,27.087l44.505,-8.367l52.772,-25.527l0,-30.49l65.862,-3.404l-14.743,44.105l29.624,17.018l46.159,-45.807l69.306,-3.403l-3.307,-44.247l31.278,-13.472l-0,-17.018l36.238,-15.317l41.198,-62.682l-0,-28.931l-14.743,-5.105l-11.574,-52.614l11.16,-28.931l15.157,-38.857l57.732,-5.106l21.495,-20.421l57.733,-8.509l14.743,13.614l67.653,-5.105l31.277,-23.684l80.881,8.509l-0,-35.737l49.465,11.912l1.654,-42.403l-21.495,-22.123l13.227,-37.298l-29.761,-45.807l54.425,-23.825l-3.307,-32.192l-23.01,-11.913l14.743,-18.578l24.802,6.808l39.544,-37.44l-26.317,-37.298l31.278,-18.719l21.494,-4.964l-9.92,-20.421l51.118,-20.422l-11.574,-27.087l-24.801,0l9.921,-15.316l-34.585,-6.807l-41.198,25.527l4.96,-40.702l-14.881,-25.526l27.971,-25.386l-4.823,-78.14l-29.761,-0l-1.654,-28.789l-44.505,-1.702l11.574,-37.298l34.585,-6.807l-1.654,-28.93l-31.277,1.702l3.307,-18.578l34.584,6.665l39.545,-10.069l-0,-61.123l-46.159,13.615l0,-0.284l3.307,-23.542l-21.357,-15.316l-18.188,6.807l-26.455,-16.876l-1.515,-23.825l-8.267,-8.509l-3.307,-61.123l-39.545,40.843l-14.881,-17.018l-16.534,-45.806l-37.892,20.28l-13.227,-16.877l-4.96,-38.999l-19.704,-8.509l-3.307,-27.229l-65.999,-44.105l31.415,-42.403l-38.029,-56.017l1.653,-20.28l-84.049,-25.527Z" style="fill:none;fill-rule:nonzero;stroke:#000;stroke-width:8.05px;"/><path id="path3976" d="M1393.85,412.827l-13.228,1.135l0,5.672l-18.187,4.964l-18.05,28.931l-19.842,15.316l-32.931,13.472l-19.841,23.825l-1.102,-0.567l-21.908,-11.345l-23.148,5.105l-21.495,-22.123l-21.357,-6.666l-8.267,16.877l-11.574,-1.702l-9.921,18.72l-18.05,-3.404l-19.841,-15.316l-9.92,10.211l1.653,18.719l24.388,0.426l8.267,2.553l7.854,3.829l6.063,6.239l2.893,3.83l0,12.338l-4.133,9.785l-5.65,6.382l-10.334,7.232l-3.306,2.553l9.507,15.6l-0.276,0.142l73.992,1.843l8.68,27.371l14.054,20.279l0,36.589l20.53,2.411l11.575,-7.516l15.707,-14.466l33.207,-0.851l1.378,0l12.4,9.36l25.491,17.727l19.014,15.317l0.827,10.21l26.317,25.385l18.188,6.24l0,-8.792l-9.921,-21.982l-16.534,-37.297l13.228,-5.106l-0,-10.211l-18.05,-8.509l-0,-33.894l16.396,-10.21l6.614,-42.404l19.841,-27.228l-13.227,-0l-31.278,-64.385l18.05,-11.912l-14.743,-40.702Z" style="fill:none;fill-rule:nonzero;stroke:#000;stroke-width:8.05px;"/><path id="path3997" d="M1106.84,514.651l-13.09,1.702l-11.574,3.404l-9.92,8.367l-21.357,20.421l-18.188,15.317l-20.392,13.33l-4.41,8.651l-21.357,11.913l-8.267,17.018l-11.574,27.087l4.685,29.072l3.582,21.84l19.842,33.894l4.96,27.228l21.357,8.509l19.841,6.808l-0.551,6.949l-0.965,11.912l3.17,1.418l24.663,27.229l23.148,-3.403l16.397,18.577l-13.09,15.317l9.783,11.912l13.228,-13.614l3.306,18.72l13.228,-1.702l-0,-28.931l8.129,-3.403l-6.476,-14.324l7.441,-22.974l5.787,-17.018l-7.441,-10.92l2.481,-17.869l4.96,-9.36l-0.827,-11.912l-45.056,-21.414l-19.29,-9.077l-36.513,-34.319l-0.552,-0.426l4.134,-12.763l9.783,-16.167l9.92,-7.658l30.589,-2.411l10.61,-14.465l15.707,-14.466l15.708,-7.232l-9.507,-15.6l3.306,-2.553l10.334,-7.232l5.65,-6.382l4.133,-9.785l0,-12.338l-2.893,-3.83l-6.063,-6.239l-7.854,-3.829l-8.267,-2.553l-24.388,-0.426Z" style="fill:none;fill-rule:nonzero;stroke:#000;stroke-width:8.05px;"/><path id="path4004" d="M1321.23,651.22l-34.585,0.851l-15.707,14.466l-11.575,7.516l-20.53,-2.411l-4.133,22.549l7.578,1.843l3.445,-10.778l8.267,-5.389l28.522,1.135l8.129,9.076l-1.102,14.891l-7.027,15.458l-0,0.142l-29.211,-2.411l-27.971,-9.502l-21.494,13.189l-15.708,7.8l-1.24,0.567l-39.545,-4.254l0.827,11.77l-4.96,9.36l-2.481,17.869l7.441,10.92l-5.787,17.018l-7.441,22.974l6.476,14.324l8.405,-3.404l13.09,15.316l23.148,0l11.574,37.298l34.585,-3.404l3.306,10.211l23.011,-1.702l16.534,3.404l0,-16.876l59.386,-15.316l16.397,37.297l4.96,18.72l23.148,18.578l25.766,-3.971l-1.102,-4.396l-13.09,-20.422l26.317,-33.894l3.307,-11.912l-8.267,-0l-6.614,-11.913l18.188,-13.614l0,-13.473l0.965,-1.702l8.956,-15.316l-23.148,-1.702l-0,-18.719l13.227,-16.877l0,-26.945l-18.188,-6.24l-26.317,-25.385l-0.827,-10.21l-19.014,-15.317l-25.491,-17.727l-12.4,-9.36Z" style="fill:none;fill-rule:nonzero;stroke:#000;stroke-width:8.05px;"/><path id="path4011" d="M1147.35,725.958l39.545,4.254l16.948,-8.367l21.494,-13.189l27.971,9.502l29.211,2.411l7.027,-15.6l1.102,-14.891l-8.129,-9.076l-28.522,-1.135l-8.267,5.389l-3.445,10.778l-7.578,-1.843l4.133,-22.549l0,-36.589l-14.054,-20.279l-8.68,-27.371l-73.992,-1.843l-15.432,7.09l-15.707,14.466l-10.61,14.465l-30.589,2.411l-9.92,7.658l-9.783,16.167l-4.134,12.763l37.065,34.745l64.346,30.491l0,0.142Z" style="fill:none;fill-rule:nonzero;stroke:#000;stroke-width:8.05px;"/><path id="path4594-28" d="M1563.45,631.903c-2.035,0 -3.708,1.722 -3.708,3.817c0,2.095 1.673,3.817 3.708,3.817c0.44,-0 0.812,-0.165 1.203,-0.31c-0.532,0.812 -0.902,1.733 -0.902,2.785c0,2.808 2.183,5.158 4.911,5.158c2.728,0 5.011,-2.35 5.011,-5.158c0,-1.296 -0.527,-2.402 -1.303,-3.3c0.609,0.457 1.293,0.825 2.105,0.825c2.036,-0 3.708,-1.722 3.708,-3.817c0,-2.095 -1.672,-3.817 -3.708,-3.817c-2.035,0 -3.708,1.722 -3.708,3.817c-0,0.816 0.276,1.548 0.701,2.166c-0.788,-0.548 -1.783,-0.928 -2.806,-0.928c-0.682,-0 -1.313,0.155 -1.904,0.412c0.245,-0.507 0.301,-1.046 0.301,-1.65c-0,-2.095 -1.573,-3.817 -3.608,-3.817l-0.001,0Z" style="fill-rule:nonzero;stroke:#000;stroke-width:2.33px;"/><g id="text5162"><text x="1525.66px" y="1047.26px" style="font-family:'ArialRoundedMTBold', 'Arial Rounded MT Bold', sans-serif;font-size:90.762px;">S<tspan x="1584.48px 1636.88px 1660.78px 1714.04px 1766.44px 1795.81px 1848.21px 1879.43px 1908.8px 1982.25px 2034.65px 2073.28px 2126.54px " y="1047.26px 1047.26px 1047.26px 1047.26px 1047.26px 1047.26px 1047.26px 1047.26px 1047.26px 1047.26px 1047.26px 1047.26px 1047.26px ">eine-et-Marne</tspan></text></g><g id="text5166"><text x="887.29px" y="1186.09px" style="font-family:'ArialRoundedMTBold', 'Arial Rounded MT Bold', sans-serif;font-size:90.762px;">E<tspan x="946.108px 993.902px 1041.7px 1094.96px 1148.22px 1201.49px " y="1186.09px 1186.09px 1186.09px 1186.09px 1186.09px 1186.09px ">ssonne</tspan></text></g><g id="text5170"><text x="449.265px" y="785.167px" style="font-family:'ArialRoundedMTBold', 'Arial Rounded MT Bold', sans-serif;font-size:114.826px;">Y<tspan x="514.743px 573.739px 640.034px 670.267px 700.5px 767.884px 834.179px " y="785.167px 785.167px 785.167px 785.167px 785.167px 785.167px 785.167px ">velines</tspan></text></g><g id="text5174"><text x="794.795px" y="339.535px" style="font-family:'ArialRoundedMTBold', 'Arial Rounded MT Bold', sans-serif;font-size:90.762px;">V<tspan x="850.1px 901.597px 925.081px " y="339.535px 339.535px 339.535px ">al-</tspan></text><text x="961.744px" y="339.535px" style="font-family:'ArialRoundedMTBold', 'Arial Rounded MT Bold', sans-serif;font-size:90.762px;">d<tspan x="1015.91px 1036.72px 1105.36px 1128.84px 1175.81px " y="339.535px 339.535px 339.535px 339.535px 339.535px ">&apos;Oise</tspan></text></g><g id="text5184"><text x="1032.17px" y="600.933px" style="font-family:'ArialRoundedMTBold', 'Arial Rounded MT Bold', sans-serif;font-size:63.534px;fill:#ccc;">1</text></g><g id="text5258"></g><text x="1108.66px" y="666.751px" style="font-family:'Arial-BoldMT', 'Arial', sans-serif;font-weight:700;font-size:38.898px;">P<tspan x="1133.87px 1154.89px 1169.6px 1180.1px " y="666.751px 666.751px 666.751px 666.751px ">aris</tspan></text><text x="1162.82px" y="558.04px" style="font-family:'Arial-Black', 'Arial Black', sans-serif;font-weight:900;font-size:25.932px;">S<tspan x="1181.02px 1197.82px 1206.21px 1223.02px 1239.82px 1248.21px 1266.41px 1283.21px 1291.6px 1308.41px 1319.59px 1327.98px 1347.58px 1364.38px 1381.19px 1389.58px " y="558.04px 558.04px 558.04px 558.04px 558.04px 558.04px 558.04px 558.04px 558.04px 558.04px 558.04px 558.04px 558.04px 558.04px 558.04px 558.04px ">eine-Saint-Denis</tspan></text><text x="1157.33px" y="806.084px" style="font-family:'Arial-BoldMT', 'Arial', sans-serif;font-weight:700;font-size:38.898px;">V<tspan x="1180.45px 1201.47px 1211.97px 1224.55px 1247.64px 1268.66px 1281.24px 1312.72px 1333.74px 1348.45px 1371.54px " y="806.084px 806.084px 806.084px 806.084px 806.084px 806.084px 806.084px 806.084px 806.084px 806.084px 806.084px ">al-de-Marne</tspan></text><g transform="matrix(3.1494,0,0,3.24152,19.5732,23.2667)"><g transform="matrix(-0.75658,-0.653901,0.653901,-0.75658,447.941,615.017)"><text x="338.443px" y="224.134px" style="font-family:'ArialRoundedMTBold', 'Arial Rounded MT Bold', sans-serif;font-size:10px;">H</text></g><g transform="matrix(-0.697655,-0.716434,0.716434,-0.697655,407.814,610.378)"><text x="332.701px" y="219.138px" style="font-family:'ArialRoundedMTBold', 'Arial Rounded MT Bold', sans-serif;font-size:10px;">a</text></g><g transform="matrix(-0.623551,-0.781783,0.781783,-0.623551,365.411,605.744)"><text x="328.546px" y="214.895px" style="font-family:'ArialRoundedMTBold', 'Arial Rounded MT Bold', sans-serif;font-size:10px;">u</text></g><g transform="matrix(-0.535184,-0.844735,0.844735,-0.535184,321.135,596.981)"><text x="324.812px" y="210.138px" style="font-family:'ArialRoundedMTBold', 'Arial Rounded MT Bold', sans-serif;font-size:10px;">t</text></g><g transform="matrix(-0.426588,-0.904446,0.904446,-0.426588,273.182,587.549)"><text x="322.842px" y="207.177px" style="font-family:'ArialRoundedMTBold', 'Arial Rounded MT Bold', sans-serif;font-size:10px;">s</text></g><g transform="matrix(-0.270562,-0.962703,0.962703,-0.270562,212.636,565.595)"><text x="320.593px" y="202.241px" style="font-family:'ArialRoundedMTBold', 'Arial Rounded MT Bold', sans-serif;font-size:10px;">-</text></g><g transform="matrix(-0.0461616,-0.998934,0.998934,-0.0461616,135.433,527.418)"><text x="319.521px" y="199.05px" style="font-family:'ArialRoundedMTBold', 'Arial Rounded MT Bold', sans-serif;font-size:10px;">d</text></g><g transform="matrix(0.249848,-0.968285,0.968285,0.249848,52.9116,453.855)"><text x="319.37px" y="192.779px" style="font-family:'ArialRoundedMTBold', 'Arial Rounded MT Bold', sans-serif;font-size:10px;">e</text></g><g transform="matrix(0.430893,-0.902403,0.902403,0.430893,13.8731,396.092)"><text x="320.968px" y="187.047px" style="font-family:'ArialRoundedMTBold', 'Arial Rounded MT Bold', sans-serif;font-size:10px;">-</text></g><g transform="matrix(0.626426,-0.779481,0.779481,0.626426,-22.9771,319.888)"><text x="322.243px" y="183.916px" style="font-family:'ArialRoundedMTBold', 'Arial Rounded MT Bold', sans-serif;font-size:10px;">S</text></g><g transform="matrix(0.815504,-0.578751,0.578751,0.815504,-43.2037,221.936)"><text x="326.498px" y="178.732px" style="font-family:'ArialRoundedMTBold', 'Arial Rounded MT Bold', sans-serif;font-size:10px;">e</text></g><g transform="matrix(0.898165,-0.439658,0.439658,0.898165,-43.3741,163.57)"><text x="331.41px" y="175.416px" style="font-family:'ArialRoundedMTBold', 'Arial Rounded MT Bold', sans-serif;font-size:10px;">i</text></g><g transform="matrix(0.950354,-0.311171,0.311171,0.950354,-37.6085,112.518)"><text x="333.817px" y="174.12px" style="font-family:'ArialRoundedMTBold', 'Arial Rounded MT Bold', sans-serif;font-size:10px;">n</text></g><g transform="matrix(0.987419,-0.158127,0.158127,0.987419,-22.9656,55.8637)"><text x="339.579px" y="172.253px" style="font-family:'ArialRoundedMTBold', 'Arial Rounded MT Bold', sans-serif;font-size:10px;">e</text></g></g></g></svg>